<?xml version="1.0" encoding="UTF-8"?>
<!DOCTYPE svg PUBLIC "-//W3C//DTD SVG 1.0//EN" "http://www.w3.org/TR/2001/REC-SVG-20010904/DTD/svg10.dtd">
<!-- Creator: CorelDRAW X7 -->
<svg xmlns="http://www.w3.org/2000/svg" xml:space="preserve" width="8.26772in" height="11.6929in" version="1.0" style="shape-rendering:geometricPrecision; text-rendering:geometricPrecision; image-rendering:optimizeQuality; fill-rule:evenodd; clip-rule:evenodd"
viewBox="0 0 8268 11693"
 xmlns:xlink="http://www.w3.org/1999/xlink">
 <defs>
  <style type="text/css">
   <![CDATA[
    .fil12 {fill:#060606}
    .fil10 {fill:#242D32}
    .fil16 {fill:#2A2E2B}
    .fil13 {fill:#2C332D}
    .fil15 {fill:#31332D}
    .fil14 {fill:#323532}
    .fil11 {fill:#323B40}
    .fil9 {fill:#4A5D61}
    .fil8 {fill:#62777A}
    .fil6 {fill:#667673}
    .fil7 {fill:#738C89}
    .fil5 {fill:#9EB3A0}
    .fil4 {fill:#C5CAB4}
    .fil1 {fill:#EDC2A0}
    .fil2 {fill:#F2AD76}
    .fil0 {fill:#F2DDCC}
    .fil3 {fill:white}
   ]]>
  </style>
    <mask id="id0">
  <linearGradient id="id1" gradientUnits="userSpaceOnUse" x1="4135.07" y1="2394.41" x2="4135.07" y2="581.913">
   <stop offset="0" style="stop-opacity:0; stop-color:white"/>
   <stop offset="1" style="stop-opacity:1; stop-color:white"/>
  </linearGradient>
     <rect style="fill:url(#id1)" x="979" y="578" width="6313" height="1820"/>
    </mask>
 </defs>
 <g id="Layer_x0020_1">
  <metadata id="CorelCorpID_0Corel-Layer"/>
  <rect class="fil0" width="8268" height="11693"/>
  <g id="_2404964563232">
   <path class="fil1" d="M983 1037l10 0 0 60 26 0 0 -60 16 0 0 11 9 0 0 -11 16 0 0 20 34 0 0 26 29 0 0 -46 26 0 0 15 27 0 0 -15 13 0 0 122 10 1 -1 -123 25 0 0 122 11 0 0 -45 19 0 0 -77 9 0 0 15 19 0 0 45 11 0 0 -60 24 0 0 60 10 0 0 -60 12 0 0 78 28 0 0 -53 25 0 0 84 30 -1 0 -26 33 0 1 -81 15 0 1 73 9 0 0 -74 16 1 0 121 26 0 0 -122 21 0 0 173 10 0 0 -145 24 -1 0 146 11 0 0 -45 19 0 0 -115 14 0 0 73 10 1 0 -74 24 0 0 73 11 0 0 -45 19 0 0 -28 8 0 0 115 27 0 0 -53 25 0 0 84 30 0 0 -26 34 0 0 -82 15 0 0 21 1 0 0 52 9 0 0 -52 16 0 0 101 26 0 0 -127 11 0 0 -46 16 0 0 37 9 0 0 -37 16 0 0 86 23 0 0 36 11 1 -1 -123 24 0 0 122 12 0 0 -45 19 0 0 -77 10 0 0 155 26 0 0 -121 16 -1 1 73 8 0 1 -73 16 0 0 82 33 0 1 26 29 0 0 -33 25 0 0 2 28 0 0 -28 7 0 0 -82 16 0 1 73 8 0 1 -73 2 0 14 1 0 121 26 0 0 -122 10 0 0 110 19 0 0 45 12 0 0 -145 24 0 -1 146 10 -1 0 -155 11 0 0 96 26 0 0 -96 16 0 0 47 9 0 0 -47 16 0 1 56 33 0 0 26 30 0 0 -82 25 0 0 51 28 0 0 -51 85 0 0 51 19 0 0 45 11 0 0 -96 24 0 0 97 10 -1 0 -96 1206 0 -1 72 24 0 0 -72 12 0 0 21 19 0 0 51 85 0 0 -51 28 0 0 51 25 0 0 -72 29 0 1 16 33 0 0 56 16 0 1 -47 8 -1 1 48 16 0 0 -72 26 0 0 72 10 0 0 -72 10 0 0 62 24 0 0 -62 30 0 1 72 10 0 0 -72 26 0 0 71 14 1 2 0 0 -72 9 0 1 71 15 1 1 -72 123 0 0 39 16 -1 0 -38 9 0 1 39 16 -1 0 -38 26 0 0 72 10 0 0 -72 30 0 0 72 25 0 -1 -72 33 0 0 72 17 0 0 -37 9 0 0 37 16 0 0 -46 10 0 0 -26 53 0 0 21 15 0 0 -21 116 0 0 59 8 0 0 -28 19 0 -1 -31 12 0 0 59 24 0 0 -59 10 0 0 59 14 0 0 -59 30 0 0 44 24 0 0 -44 10 0 0 72 21 0 0 -72 26 0 0 71 16 0 0 -71 9 0 0 71 16 0 0 -71 63 0 1 47 25 0 0 -47 27 0 0 72 13 0 0 -60 10 -1 0 61 24 0 0 -60 11 0 0 45 19 0 0 15 9 0 0 -72 30 0 0 72 24 0 0 -72 10 0 0 72 12 0 0 -15 28 0 0 15 25 0 0 -46 30 0 0 26 33 0 0 20 17 0 0 -27 9 0 0 11 8 0 0 -44 11 0 0 100 10 0 0 -60 13 0 0 47 10 0 0 -47 11 0 0 -15 8 0 0 -11 9 0 0 11 17 0 0 -20 33 0 0 49 30 0 0 -29 25 0 0 -15 28 0 0 90 12 0 0 -107 10 0 0 107 24 0 0 -107 11 0 0 30 19 0 0 77 9 0 0 -15 19 0 0 -45 11 0 0 60 24 0 0 -60 10 0 0 60 13 0 0 -78 27 0 0 69 25 0 0 -83 1 -1 29 0 0 10 0 39 29 0 1 -36 24 0 0 42 21 0 0 -69 26 0 0 40 21 0 0 -45 10 0 0 17 24 1 0 -18 30 0 0 32 14 0 0 10 10 -1 0 -9 24 0 0 10 12 0 -1 -38 19 0 0 28 8 0 0 -32 27 0 0 53 26 0 0 -53 63 0 0 77 15 0 0 -22 1 1 0 -52 9 0 0 52 16 0 0 -56 27 0 0 45 26 0 0 -37 9 0 0 37 17 0 0 -3 23 0 0 -36 10 -1 -1 40 25 0 0 -39 11 0 0 45 19 0 0 -6 10 0 0 -45 26 0 0 11 16 1 1 9 9 0 0 -9 16 0 0 1 34 0 0 -13 29 0 0 19 25 1 0 -3 28 0 0 29 7 0 1 -1 15 0 1 9 9 0 0 -9 2 0 14 -1 0 -38 26 0 0 39 10 0 1 -27 19 0 0 -18 11 0 0 35 24 0 0 -35 10 0 0 45 10 0 0 -13 26 0 0 13 16 0 1 35 8 0 1 -35 16 0 0 27 33 0 1 -26 29 -1 0 0 25 0 0 31 28 0 0 -31 33 0 0 -43 19 0 0 43 33 0 0 32 19 0 0 -45 9 0 0 -31 18 0 0 44 0 22 0 9490 -6305 0 0 -9557z"/>
   <path class="fil1" style="mask:url(#id0)" d="M983 2394l6305 0 0 -1812 -6305 0 0 1812z"/>
   <circle class="fil2" cx="3222" cy="2450" r="1740"/>
   <path class="fil3" d="M3403 3465c290,1 525,236 525,526 0,53 -8,105 -23,154l20 6 -22 0c-68,212 -267,366 -501,366 -235,0 -433,-154 -501,-366l-1918 0 0 -1763c95,44 163,138 171,249 31,-11 64,-16 99,-16 168,0 307,129 320,294 45,-20 96,-31 148,-31 102,0 193,41 259,108 90,-161 262,-270 460,-270 240,0 442,160 505,379 216,18 395,165 458,364z"/>
   <path class="fil3" d="M7130 2060c84,0 152,65 157,148l1 0 0 10 0 398 -933 0 -395 0 0 0 0 0c32,-47 86,-77 147,-77 6,0 11,0 17,0 9,-18 29,-31 51,-31 7,0 13,1 19,3 15,-34 49,-57 89,-57 4,0 8,0 12,0 5,-48 46,-86 96,-86 16,0 31,4 44,10 16,-76 84,-134 165,-134 52,0 98,24 129,61 13,-4 26,-5 40,-5 3,0 6,0 10,0 16,-70 78,-122 153,-122 15,0 30,2 44,6 15,-71 78,-124 154,-124z"/>
   <path class="fil4" d="M983 4178l210 -129 199 -71 87 3 225 82 314 -130 27 -48 206 -82 101 2 499 -322 208 76 176 -2 327 148 149 -140 216 -87 400 -392 118 -2 192 67 654 -654 269 285 291 103 188 232 195 121 193 71 211 93 326 201 161 84 161 141 2 2759 -6304 0 -1 -2409z"/>
   <g>
    <path class="fil5" d="M983 4094l155 57 170 34 358 193 84 17 200 -99 201 -10 178 -51 146 -6 109 10 120 56 246 95 125 63 303 259 301 11 178 46 266 171 141 153 176 94 227 -14 97 35 164 45 157 24 151 89 321 240 1731 981 -6305 1 0 -2494z"/>
    <path class="fil5" d="M2914 3632l163 -4 66 25 97 0 91 59 121 55 139 63 170 132 104 105 143 103 27 63 -142 -55 -101 -53 -65 -10 -101 -80 -70 -77 -52 11 31 62 18 38 38 21 -59 21 -66 -35 -83 -55 -73 -59 -73 -39 -97 -79 -73 -59 -56 -46 -55 -38 -42 -69z"/>
    <path class="fil5" d="M4386 3233l90 10 153 118 122 62 34 60 108 52 24 97 35 52 -69 -28 -66 -45 -56 -21 -73 -42 -69 42 -49 -40 -52 -85 -38 18 -28 -94 -31 -80 -35 -76z"/>
    <path class="fil5" d="M5351 2771l98 24 34 49 223 132 302 225 288 243 66 84 149 -14 247 229 132 121 -98 -24 -76 -35 -97 -38 -198 4 -52 0 -97 -70 -70 -21 -42 -48 -66 0 39 69 10 38 59 73 45 49 -66 0 -52 -28 -42 -35 -65 -45 -101 -52 -101 -135 -48 -63 -63 -59 -38 -86 10 -98 -24 -80 -63 -69 -121 -139 -52 -76 -56 -77 -14 -48z"/>
    <path class="fil5" d="M3554 3702c580,312 1240,604 1226,556 -31,-98 208,146 252,159 99,30 -64,-169 42,-68l330 315 937 524 -307 -99 -1289 -766 -1073 -530 -118 -91z"/>
   </g>
   <g>
    <path class="fil6" d="M1285 3535c79,-35 209,-84 246,31 -118,-16 -152,-20 -239,70 -66,-66 -94,-85 -204,-81 45,-69 104,-72 197,-20z"/>
    <path class="fil6" d="M3008 4756c68,-28 164,-89 204,9 -101,-13 -146,-5 -205,65 -30,-52 -82,-77 -176,-74 38,-54 107,-57 177,0z"/>
    <path class="fil6" d="M1959 3601c20,16 143,121 121,160 -8,15 -106,-71 -121,-88 -48,37 -95,91 -121,80 -14,-30 61,-109 121,-152z"/>
    <path class="fil6" d="M4500 4584c20,-19 144,-141 122,-186 -9,-17 -107,81 -122,102 -48,-43 -94,-105 -121,-93 -14,35 62,126 121,177z"/>
   </g>
   <path class="fil7" d="M7288 4891c-335,94 -419,440 -762,320 -91,-32 -228,-34 -370,9 -152,47 -363,214 -499,259 -174,58 -282,231 -374,318 -27,26 -150,55 -228,12 -61,-34 -169,-49 -227,-77 -430,-211 -789,-172 -1171,251 -38,42 -102,85 -169,120 -124,66 -205,95 -331,177 -65,43 -129,87 -196,134 -41,29 -33,28 -82,32l-137 9c-54,-2 -278,-204 -423,-249 -117,-37 -218,-37 -325,-86 -237,-108 -313,-329 -641,-364 -97,-11 -207,12 -370,36l0 5319 6299 0 6 -6220z"/>
   <path class="fil8" d="M983 7023c37,79 28,176 42,264 17,-104 45,-225 83,-317 33,95 36,197 69,293 20,-80 40,-155 51,-205 37,73 57,171 71,264 24,-106 33,-203 73,-320 58,129 64,220 97,330 36,-141 54,-262 109,-423 62,261 79,442 118,663 26,-121 36,-220 77,-362 60,163 65,292 97,437 27,-101 24,-166 80,-304 49,87 46,199 69,298 16,-48 61,-96 77,-144 54,109 43,197 79,296 10,-118 51,-165 66,-249 33,84 44,166 77,249 8,-84 24,-147 46,-238 55,82 64,221 91,317 3,-83 15,-170 39,-234 32,88 70,146 95,262 14,-158 6,-310 44,-476 33,96 39,169 59,253 14,-49 27,-98 40,-147 34,83 34,159 51,239 38,-80 66,-161 114,-237 57,91 68,169 102,253 17,-82 47,-119 70,-179 28,79 62,152 83,238 3,-127 35,-164 53,-247 42,27 54,102 81,153 37,-132 44,-238 111,-396 43,70 49,165 73,247 22,-90 45,-181 67,-271 50,72 69,161 104,242 35,-116 70,-231 105,-346 46,98 92,197 138,295 19,-85 18,-153 58,-256 12,34 33,51 45,84 17,49 26,115 43,163 17,-123 -14,-204 53,-368 44,95 64,129 75,236 17,-56 26,-125 50,-169 42,74 36,152 54,228 33,-158 44,-211 66,-317 68,91 69,237 105,334 18,-69 29,-183 73,-274 43,44 34,152 58,214 30,-115 36,-208 96,-334 52,68 57,151 89,232 8,-113 41,-175 62,-263 32,64 73,117 92,217 26,-99 32,-215 82,-322 38,88 41,176 62,263 23,-75 73,-132 96,-208 26,67 25,116 50,183 21,-108 28,-250 86,-355 24,121 26,273 50,394 18,-52 61,-109 79,-161 28,74 32,152 61,226 28,-109 49,-244 96,-354 14,70 17,169 32,239 21,-94 49,-137 74,-206 17,72 50,117 51,216 32,-99 36,-178 95,-296 33,74 38,127 57,190 21,-99 26,-194 63,-296 56,83 57,150 85,225 23,-121 26,-234 68,-363 38,51 42,109 63,164 13,-76 24,-181 57,-246 33,81 46,182 79,263 16,-163 46,-277 69,-415 51,94 52,223 78,334 23,-98 31,-192 69,-296 50,108 65,202 97,302 22,-96 34,-192 66,-289 32,74 55,153 77,223 11,-99 33,-179 56,-262 24,75 59,135 74,224 20,-64 65,-119 106,-192 49,117 35,200 61,295 22,-52 36,-108 69,-186 32,64 65,173 85,249 22,-83 50,-170 90,-264l-4 4584 -6299 0 0 -4088z"/>
   <path class="fil9" d="M4097 8778c45,44 52,37 128,33 48,-2 32,-5 79,4l79 32c-32,31 -49,59 -102,84 -101,-40 -265,-129 -284,-238l170 6c-2,6 -7,6 -9,13l-17 19c-42,41 -26,10 -44,47zm-3114 1561l-5 -2319 37 -159c3,-12 11,80 34,123 11,22 47,26 61,59 -3,15 -76,-25 -78,-12 -41,249 134,335 118,351l17 25c150,-17 133,-51 156,-106 -162,8 -276,-24 -200,-59 53,-25 167,-42 194,-122 -43,14 -132,2 -179,-14 -4,-53 19,-39 61,-68 39,-27 136,-56 168,-95l-190 -5c29,-46 1,-13 54,-49 48,-32 153,-59 152,-123 -37,4 -111,9 -160,-10 19,-74 109,-27 163,-118 -8,-9 4,-50 -5,-52 -26,-9 -99,-16 -112,-52l127 -33c-3,-9 18,-54 12,-60 -19,-15 -63,13 -70,2 52,-92 46,-104 59,-157 5,-21 29,-40 36,-86 22,43 -3,15 27,71 43,82 17,65 67,181l-65 -17 9 59c54,27 104,9 126,58l-85 34c-36,19 16,18 -10,46 20,28 34,52 80,64 27,36 91,13 91,57l-155 24c28,62 74,86 141,93 35,34 52,25 57,75 -95,28 -96,1 -169,-16 10,52 106,130 175,132 20,33 16,7 14,55l-185 20c20,86 166,91 273,161 -173,102 -256,-47 -276,27 27,19 148,97 177,118 81,61 93,41 126,91 -102,22 -183,-1 -278,-10 9,69 174,101 236,124 60,-39 53,-10 135,-43 51,-21 98,-32 78,-87 -41,-22 -181,-52 -168,-106 102,20 128,10 172,-6l-6 -70c-67,-41 -40,-14 -107,-99 22,-4 73,16 99,10l42 -15c-26,-35 -80,-25 -88,-109l85 23c31,-88 -14,-181 43,-207 42,26 1,136 59,211l73 -4 -89 86c55,37 160,-35 187,35 -14,27 -105,34 -147,65 -20,16 -14,42 -11,70 37,41 117,-14 170,15 -36,94 -140,103 -194,103 -12,101 219,86 279,148 -50,26 -184,48 -249,38 43,83 212,124 305,148 -95,88 -251,18 -331,-8 11,89 128,171 208,164 -12,17 169,19 160,32 -49,69 -337,63 -349,70 38,47 89,58 132,109l207 38c6,8 -165,90 -259,76 -36,-5 -62,-11 -98,-15 68,133 237,101 336,177l-179 29c-26,10 -37,24 -42,39l718 -80c-83,-42 -410,-96 -423,-168 85,16 327,-56 397,-28l-279 -153c7,-12 187,23 200,-11 -41,-52 201,21 148,-7 -74,-40 -218,-68 -357,-129 31,-42 264,-6 288,-53 18,-34 -234,-87 -218,-112 23,-33 313,-6 324,-35 -84,-25 -255,-38 -294,-121 49,-21 275,46 315,0 38,-40 -268,-130 -262,-156 1,-4 304,17 310,8 13,-24 -189,-149 -217,-173 -51,-43 341,47 311,34 -20,-42 -216,-137 -265,-198 64,-17 190,84 270,1 -12,-24 -1,-20 -14,-33 -28,-29 -159,-51 -212,-105 22,-31 169,-1 196,-23 9,-7 -138,-47 -141,-70 -2,-23 140,-28 145,-39l-135 -50c32,-64 98,-11 143,-94 -4,-3 -9,-11 -11,-8l-104 -3 64 -71c86,6 65,-92 65,-100 -5,-50 -57,-24 -71,-57 7,-22 67,4 70,-27 7,-56 -56,-57 -53,-80 1,-9 48,6 59,-28 17,-52 11,-92 23,-149 38,107 -13,163 75,172 -80,41 -67,121 31,111l-71 44c10,137 153,104 156,179 -40,-8 -56,22 -104,11 8,61 22,29 70,66 43,33 82,2 99,56 -46,-1 -129,37 -159,20 0,24 -3,78 6,96 9,20 144,52 160,63 27,21 -125,-15 -130,24 -2,14 104,39 108,51 12,-4 111,-44 97,-67 -17,-29 -147,-42 -130,-58 27,-27 176,5 175,-23 -70,-31 -130,-30 -215,-53 15,-23 116,-18 219,-116 -84,8 -100,-52 -175,-102l206 -54 -194 -89c40,-47 211,5 220,-63 -65,14 -137,-68 -206,-80 98,-129 195,77 224,-104l-128 -54c59,-49 98,-5 139,-80 -6,-8 -137,-45 -139,-49 -12,-30 172,-10 119,-75 -27,-33 -68,-43 -68,-43 1,-26 56,-12 68,-36 14,-27 50,-133 57,-173 1,-4 3,-9 3,-11 1,-3 3,-8 4,-11 59,68 12,220 125,228 5,22 -99,47 -81,81 25,48 111,-2 125,27 -31,16 -89,80 -125,69 56,35 126,31 168,63l-128 71c54,153 78,8 184,67 -12,33 -97,97 -130,93 -71,93 130,67 157,66 36,0 -175,85 -162,103 38,52 146,40 195,85 -19,61 -157,53 -203,43 36,120 146,8 232,87 -28,-4 -176,55 -245,62 15,32 236,33 254,58 15,21 -260,114 -235,137 66,58 222,-36 248,28 -153,66 -190,112 -263,95 28,59 79,18 111,54 32,35 15,11 28,39 42,20 75,37 118,66 68,44 90,114 213,57 56,-25 37,-12 38,-79 -101,3 -211,29 -212,-94 128,-4 139,37 212,-65l-73 -8c-123,5 -155,-34 -88,-80 120,-45 69,-27 138,-100 -62,-44 -80,-5 -96,-75 10,-63 110,0 131,-124 -58,-18 -72,9 -108,-42 23,-70 41,-21 107,-55 -29,-71 -24,5 -51,-50 -31,-62 27,-3 56,-153 9,-47 0,-49 24,-92 48,14 27,-5 47,101 59,45 29,10 50,68 37,108 42,56 -15,113l-14 16c55,22 82,44 113,94 -37,45 -16,12 -42,30 -29,20 -14,-6 -31,25 41,51 78,41 107,97 -88,91 -100,21 -170,16 23,155 229,76 203,205 -52,26 -116,12 -168,0 29,90 143,115 211,137 -14,39 -25,43 -50,72 -127,1 -96,-40 -191,-60l26 47c44,69 130,101 212,136 -23,130 -116,70 -176,75 -33,2 -16,0 -30,7 34,38 86,76 136,101 39,19 79,27 90,74 17,70 -19,61 -129,48 -121,-15 -113,-27 -114,-1 2,3 4,5 5,10 4,24 10,81 26,93 -75,15 211,-38 197,30 -19,99 -241,102 -236,175l381 -69c-16,57 -316,201 -314,235 2179,-327 1572,-549 1445,-462 5,-31 19,-74 -38,-96l-179 -29c98,-75 267,-44 335,-177 -35,4 -62,10 -98,15 -94,14 -264,-68 -259,-76l207 -38c43,-51 95,-62 132,-109 -11,-6 -300,0 -348,-70 -10,-13 171,-15 159,-32 80,7 197,-74 209,-164 -81,26 -236,96 -332,8 93,-24 263,-65 306,-148 -66,10 -200,-12 -250,-38 60,-62 292,-47 279,-147 -54,-1 -158,-10 -193,-104 52,-29 132,26 169,-15 3,-28 9,-54 -11,-69 -42,-32 -132,-39 -147,-66 27,-70 133,2 188,-34l-90 -87 73 4c58,-75 18,-185 59,-211 58,27 12,119 43,208l85 -24c-8,84 -62,74 -88,109l42 16c26,5 77,-15 100,-11 -68,85 -41,58 -107,99l-7 70c45,16 70,26 172,6 13,54 -127,84 -168,106 -20,55 27,66 78,87 82,33 75,4 136,43 61,-23 227,-55 235,-124 -95,9 -176,32 -278,10 33,-50 45,-30 127,-90 29,-22 149,-100 177,-118 -21,-75 -104,74 -277,-28 108,-69 254,-75 274,-161l-186 -20c-2,-48 -6,-22 14,-55 70,-2 166,-80 175,-132 -72,17 -74,44 -169,16 6,-50 22,-41 58,-75 67,-7 112,-31 140,-93l-154 -23c-1,-45 63,-22 90,-58 46,-12 61,-36 80,-64 -26,-28 27,-27 -9,-46l-86 -34c22,-49 73,-31 126,-58l9 -59 -65 17c50,-116 24,-99 68,-181 29,-55 4,-28 26,-70 8,45 32,65 36,85 13,53 7,65 60,157 -8,11 -52,-17 -71,-2 -6,6 15,51 12,60l128 33c-13,36 -86,43 -113,52 -8,2 4,43 -5,52 55,91 145,44 163,119 -48,19 -123,13 -160,9 -1,64 105,91 152,123 53,36 25,3 54,49l-189 5c31,39 128,68 168,95 42,29 65,15 61,68 -48,16 -137,28 -180,15 27,79 141,96 195,121 75,36 -39,67 -201,59 23,55 7,89 156,106l18 -25c-17,-16 158,-102 118,-351 -2,-13 -76,27 -79,13 15,-34 50,-38 62,-60 22,-43 31,-135 33,-123l37 160 -7 3838 -6299 0 0 -772zm1074 -1643c-135,31 -267,-57 -272,-52 -16,20 158,111 112,117 -43,12 -145,28 -194,27 91,192 346,243 347,88 -93,-1 -219,14 -211,-92 144,-22 121,54 218,-88zm-233 343c-27,-7 -58,-13 -88,-19 23,52 23,49 68,77 21,13 66,42 78,47 64,26 148,-6 162,-57 -48,-10 -50,4 -103,-4 -40,-6 -73,-33 -117,-44zm-108 215c33,9 18,3 41,26 9,8 31,39 35,45 123,47 167,118 255,-19 -116,-19 -82,-27 -176,-18 -127,11 -74,-32 -155,-34zm-521 -696c27,-26 111,-23 121,-66 -41,-2 -121,-14 -160,-1l39 67zm2813 -98c80,130 329,148 329,148 56,19 36,-23 43,45 -176,19 -55,59 -237,-27 -48,-22 -18,-5 -53,-30l-131 -122c3,-2 8,-9 9,-6 2,3 8,-3 10,-4 5,-1 27,-4 30,-4zm-614 -301l85 -17c-18,26 128,82 120,88 -3,3 -133,42 -178,32 -44,-9 71,-89 57,-85l-86 8 2 -26zm2816 -211c135,31 268,-57 272,-52 16,20 -158,112 -112,118 44,11 145,27 194,26 -90,193 -345,243 -347,88 93,-1 220,14 212,-92 -144,-22 -121,54 -219,-88zm233 343c27,-7 58,-13 88,-19 -22,52 -22,49 -68,77 -21,13 -66,42 -78,47 -64,26 -148,-6 -162,-56 49,-11 50,3 103,-5 41,-6 73,-33 117,-44zm108 215c-33,10 -18,3 -41,26 -8,9 -31,40 -35,45 -123,47 -167,119 -255,-19 117,-19 82,-26 176,-18 127,11 74,-32 155,-34zm522 -696c-27,-26 -112,-23 -121,-66 40,-2 121,-14 159,-1l-38 67z"/>
   <path class="fil10" d="M992 10644c59,18 29,28 129,2l-99 95c-12,9 -22,17 -30,24l0 79c76,32 276,15 322,7 53,-23 31,-17 70,-67 18,-23 36,-46 62,-75 81,-90 73,-64 198,-87l87 -85c35,-33 62,-41 97,-78 1,-81 -43,-226 -72,-293 41,-26 133,210 140,214 0,0 4,-81 2,-84 -29,-48 -75,-134 -138,-178 28,-122 14,13 138,97l-57 -228c84,61 104,207 114,258 27,-18 26,-11 56,-19 -1,-15 3,-118 7,-121 5,-2 15,61 42,92l52 52c52,42 39,30 33,100 22,-13 56,-34 72,-43 40,-25 38,-35 71,-56 41,-27 111,-35 166,-67 -40,-18 -29,-12 -42,-55 2,-3 7,-5 9,-6l56 -28c-12,-63 -4,-63 -59,-96l-108 -64 -53 8c-29,0 -22,2 -50,-5 -38,-10 -24,-10 -30,-14l-68 -7 -214 -67 -215 -161c27,-23 50,-29 97,-29 45,76 35,72 110,97 99,34 19,69 144,73 21,-46 8,-55 23,-102 24,15 17,-13 25,41 20,-26 3,-4 30,-25 4,2 8,5 11,6l94 14c23,-65 4,-29 -3,-84l127 -24c-22,-51 -2,-32 3,-82l-53 -18c-2,-1 -6,-3 -8,-4l-35 -22c28,-23 25,-12 27,-59 -93,-36 -171,-3 -337,-95 -73,-40 -213,-117 -234,-204l49 -26c76,56 51,128 138,150 40,-42 14,-16 27,-64 97,-4 120,10 191,39l69 -2c-2,-37 -8,-35 -6,-67l13 -51 79 6c-17,-84 -12,-73 -96,-81 4,-4 10,-13 14,-10 2,4 9,-6 13,-9 3,-2 8,-5 12,-8 4,-2 8,-4 12,-6 15,-9 -4,31 43,-25 -12,-30 -34,-20 -75,-23 -80,-6 -178,-36 -245,-63 -63,-27 -164,-66 -194,-120l-107 -125c60,36 44,28 110,20 34,88 79,116 150,71l31 55c64,30 62,52 126,23l0 -107c168,9 116,-37 133,-89 12,-39 24,22 22,-73l-128 -8c57,-122 42,-78 -110,-96 -99,-12 -138,-59 -200,-73 -22,-37 -55,-61 -87,-81 35,-40 21,-2 78,-80 2,1 138,260 144,-7 79,20 159,-61 152,-123 -104,-2 -178,-21 -254,-77 39,-25 11,4 36,-34 17,-27 17,-39 23,-63 49,30 62,61 125,23 3,-64 -19,-140 -72,-178 3,-2 42,24 74,12 78,-27 40,-13 54,-64 -42,-25 -47,-14 -102,-29 -35,-10 -64,-25 -97,-37 -15,-27 -42,-40 -65,-63 -17,-17 -43,-54 -56,-68l-43 -82c53,24 83,6 124,6 64,1 123,42 94,-47 -25,-10 -45,-28 -68,-42l82 1c7,-19 10,-28 -9,-40 -2,-2 -6,-5 -9,-7 -29,-17 -98,-48 -134,-81 -43,-41 -77,-69 -90,-128 47,14 75,39 99,3 -5,-49 -21,-53 -49,-92l-53 -57 -21 -57c63,-10 63,39 140,-17 0,-65 -37,-27 -56,-80 -10,-30 6,-32 4,-46 -2,-9 -15,-23 -35,-52 -47,-62 -68,-147 -72,-233 25,-5 51,10 73,-18 -18,-75 -40,-61 -61,-118 -21,-60 5,-134 -43,-134 -45,19 12,111 -56,154 9,95 78,-26 16,177 -28,67 -60,79 -68,134l88 31c-2,64 -6,149 -64,165l1 34 -42 17 0 33 -68 60c38,19 103,38 175,32 2,82 -12,118 -55,180l-45 44 -2 14c-47,96 -196,102 -194,175 2,31 44,5 91,-5 -29,28 -46,22 -55,81 44,82 146,-8 208,-38 -59,136 -76,114 -200,212 -49,40 -92,18 -109,73 -9,54 45,52 94,47 -4,54 -1,11 -25,21 -4,64 -40,52 -25,112 44,50 101,-11 146,-34 41,123 -208,183 -297,216 -1,-3 -38,30 -40,33 55,49 176,49 207,6 9,34 -12,61 27,102 82,10 90,-69 125,-60 10,38 -95,126 -136,152 -76,49 -148,75 -249,100 -21,63 83,4 43,51 -47,12 -72,13 -97,49l0 16c9,67 139,-6 205,12 -3,115 56,161 124,47 157,133 140,-163 229,-101 -8,94 -60,94 -112,136 -48,40 -90,63 -142,93 -61,35 -196,98 -304,111l0 64 53 4c1,55 -11,38 14,91l87 -11 9 63c67,9 122,-17 170,-35l17 42c-24,34 -70,54 -119,99l-16 16 -215 88 0 310c16,-5 35,-14 67,-25 20,55 37,55 101,28 9,-5 1,-15 36,-22 -13,39 62,16 -1,48 -55,19 -144,36 -203,56l0 442c150,-51 109,-159 211,-134 18,2 4,32 49,18 57,-19 105,-119 118,-77 15,49 -188,168 -378,261l0 417zm688 -2686c9,-46 -15,-21 14,-39 58,4 62,34 72,95 -42,-18 -35,-25 -78,-42 0,-17 21,-17 -8,-14z"/>
   <path class="fil11" d="M2183 8895l-33 24c31,55 33,13 37,73 41,3 63,-7 76,22 -47,57 -28,17 -44,26 -4,2 -7,4 -11,6 -5,3 -9,6 -13,8 -4,3 -10,13 -13,9 -3,-3 -10,6 -13,10 83,8 79,-3 96,81 0,-4 1,-9 1,-12 4,-16 2,-43 22,-56 2,-2 6,-3 8,-4 20,-6 34,9 65,13 3,-3 6,-7 7,-9 1,-2 5,-6 7,-9 80,-126 -22,-57 69,-108 22,28 14,-12 17,37 0,1 -4,20 -5,21 -15,39 3,-13 -50,52 -108,134 -80,61 -165,139 -30,13 -26,8 -49,23l-7 -93 -12 51c-2,32 4,30 6,67l-69 2c23,87 50,2 84,150 78,5 56,-13 101,-17 18,-2 29,1 46,9 32,13 24,10 42,25 -24,36 -82,87 -135,92l36 22c2,1 5,3 7,4l53 18c-5,50 -25,31 -2,82l-127 23c7,56 25,20 2,85l-93 -14c-3,-1 -8,-4 -11,-6 -27,21 -10,-1 -30,25l4 54 9 14 24 0 15 -32 30 -12 -1 32 17 99c5,4 -8,4 30,14 28,7 21,5 49,5 5,-20 18,-56 26,-70 18,-31 15,17 49,-10l52 -60c-16,72 -38,83 -74,132l109 64c55,33 47,33 58,95l-55 29c-2,1 -7,3 -10,6 14,43 2,37 42,55 73,4 130,-13 166,-10 75,7 46,58 125,58 34,-26 37,-57 87,-86 46,-27 94,-26 148,-3l40 -34c36,-122 107,-67 157,-91l-30 -69c-17,-55 12,-107 53,-141 30,-25 22,-15 39,-53 20,-48 2,-40 62,-57 38,-14 220,-62 255,-61 23,-59 21,-19 27,-73 -79,-57 -386,-130 -413,-283 86,17 21,48 91,77l14 -74 60 1 2 -32 12 -12 11 -73 34 5c7,-12 0,11 14,-23 -42,-52 18,-20 -62,-51 -74,-40 0,-43 -140,-104 54,-72 51,14 91,-45 8,-11 6,-31 15,-49 18,-37 47,-77 54,-96 -84,-25 -259,-114 -298,-197 50,-21 157,-14 198,-60 44,-47 -8,4 26,-58 37,-67 18,15 40,-63 -93,-31 -166,-51 -252,-89 -14,-29 -6,-35 -34,-57 -1,0 -19,-13 -24,-16 -1,-1 -17,-13 -21,-16 27,-49 -21,-21 81,-48 64,-17 86,66 166,-17 -38,-79 -85,-54 -162,-132 -45,-19 -75,-59 -103,-93 38,-13 31,9 79,-24 -88,-45 -197,-162 -209,-267 38,16 57,38 107,48 12,-17 9,-25 0,-55 -54,-84 -127,-73 -144,-217 18,7 146,68 148,35 1,-16 -12,-41 -13,-44 -37,-153 -133,-91 -155,-290 56,6 71,29 117,-1 -2,-63 -68,-65 -118,-173l63 -12c20,-22 -65,-62 -94,-137 -10,-46 -18,-136 -29,-139 -54,19 -28,87 -25,129 15,209 -78,174 -80,270l88 5c-28,130 -68,99 -158,226 34,36 11,25 -16,79 57,-3 97,-35 132,-52 -4,45 -107,201 -136,232 3,1 -10,19 -8,20l81 3c2,-4 8,2 12,4 -43,64 -119,176 -194,203 17,63 78,51 129,34 -11,52 -79,121 -120,148l-45 25c-48,27 -62,30 -82,71 44,37 44,-2 76,18 18,11 21,22 38,39 59,-25 50,-16 117,-19l-22 62c-4,0 -8,2 -12,4 -19,9 -19,44 -56,73 -26,21 -81,33 -129,57 -38,19 -49,22 -59,53 52,12 67,2 112,14 3,1 97,33 98,34 -36,53 -168,134 -240,167 3,4 15,21 16,24 1,5 4,18 7,32 10,50 -4,107 67,49 96,-77 29,46 142,-65l25 -23c2,-2 6,-5 10,-7 -39,169 -188,290 -323,306z"/>
   <g>
    <path class="fil12" d="M2638 10677c1,4 5,24 5,27l-10 22c-97,-25 -165,-88 -281,-81l-50 9 -185 -95 -72 -35c10,-70 65,-75 149,-79 227,-12 291,76 444,232zm4158 -1898c-8,-16 -292,32 -293,7l-276 21c-142,-17 -126,-25 -228,44l-7 47 9 79 -794 200c-78,-18 -163,-31 -165,-31l-18 -14c-71,-58 -53,-53 -95,-115 -42,-62 -63,-43 -115,-111l-149 -10 -111 15c-75,15 -119,28 -132,96 -20,99 14,125 20,198l-36 2c-3,9 -5,18 -7,26 -3,1 -5,4 -2,10 -32,135 2,172 93,276 4,3 14,10 20,15 -68,59 -169,96 -241,182 -3,4 -8,6 -14,8 -17,1 -33,2 -49,2 -38,-3 -89,-12 -145,-23 -56,-27 -50,-51 -137,-58 -119,-10 -249,-18 -370,-13 -34,-1 -217,47 -255,61 -60,18 -41,9 -62,57 -16,39 -9,29 -39,54 -40,34 -69,85 -53,140l30 69c-42,21 -98,-15 -136,45 -31,48 0,29 -43,65l-17 15c-54,-23 -102,-24 -149,3 -50,29 -53,60 -86,87 -80,-1 -51,-52 -126,-59 -36,-3 -92,14 -165,10 -55,32 -125,40 -166,67 -33,21 -31,30 -71,56 -16,9 -50,30 -72,43l-73 -6 -12 -146c-16,-19 -9,3 -21,-39 -13,-48 -4,-6 1,-28 -43,25 -12,-10 -25,40 -5,16 0,35 2,52 -4,76 3,76 -18,120 -29,-15 -30,26 -44,-97 -6,-14 -24,-106 -39,-146l-49 -91c-11,-12 -12,-11 -26,-21l48 211 -4 18c27,25 18,116 15,162 -31,-27 -77,-139 -105,-195l-6 -6c-36,-3 -7,-13 -27,6 29,68 67,195 66,276 -35,37 -62,45 -97,78l-87 85c-125,23 -117,-3 -198,87 -26,29 -44,52 -62,75 -39,50 -17,44 -70,67 -53,47 -330,-67 -330,-24l0 288 6299 0 7 -2533c0,-23 -272,103 -493,201zm-3416 1045c15,-3 30,-5 44,-6l-44 6zm75 -7c17,0 34,2 50,5 -36,56 -75,116 -112,166 -43,-32 -96,-94 -98,-142l85 -22 75 -7z"/>
   </g>
   <path class="fil13" d="M5042 9146c4,0 267,40 292,81 122,33 104,74 103,109 -45,28 -39,1 -80,42 43,74 192,102 270,83 55,-14 42,-24 90,-40 108,-38 234,55 309,-23 43,-44 12,-38 35,-91 78,2 137,25 208,-11 102,-50 70,-38 201,-41 -24,-61 -53,-58 -119,-80l-11 -24c-64,1 -100,-40 -181,-57 -46,-11 -36,-7 -76,-26l-57 -31c-3,-2 -17,-12 -20,-14 0,33 -38,33 -75,41 15,57 16,51 -36,68 -25,-47 -14,-54 -15,-106l-19 41c-1,-2 -5,7 -7,10 -78,-30 -88,-19 -120,-51 -38,2 -11,9 -40,-3 -9,71 -20,81 -97,84 17,-64 28,-55 49,-106l-143 -24 0 -69c-24,47 -9,83 4,140 10,49 26,82 10,133l-64 6c-30,-49 -13,-56 -8,-117l-4 -110c-1,-4 -1,-6 -2,-9l-14 19 -27 -8c2,32 7,99 6,127 -1,75 3,67 -62,76 -19,-27 -22,-23 -3,-95 11,-45 11,-53 1,-88 -86,16 -181,-19 -252,-39 -112,-32 -162,-18 -274,-37 52,68 73,49 115,111 42,62 24,57 95,115l18 14z"/>
   <path class="fil13" d="M6657 8949c57,10 71,22 136,21 66,0 98,-15 160,3 21,33 35,34 60,65 87,10 28,53 195,37l-4 -98c38,-2 58,-4 85,4l0 -106c-36,2 -72,3 -115,0 57,3 42,5 89,-16 -225,11 -275,-51 -368,-69 -42,-8 -147,-16 -198,-17 -66,-3 -131,18 -194,13 6,106 77,119 154,163z"/>
   <path class="fil13" d="M3924 9645c93,8 79,34 150,63 68,28 133,16 204,16 71,22 8,117 235,117 17,0 40,-1 56,-1l54 12 42 -3 229 -10c-11,-62 -32,-62 -34,-72 -1,-4 -4,-4 -6,-6 -65,-32 -85,-71 -173,-97 -75,-22 -119,-61 -146,-117 -13,-3 -10,-3 -18,-8 -1,-1 -20,-15 -27,-20 -11,55 -193,92 -253,97 -73,6 -267,1 -313,29z"/>
   <path class="fil13" d="M3421 10005c309,-2 146,202 510,213l1 -40c-90,-69 -72,-23 -119,-82 38,-68 116,-44 189,-47 25,-1 15,1 40,-5 30,-7 16,-2 36,-17 -15,-32 -3,-26 -74,-57 -25,-11 -50,-21 -81,-29 -68,-18 -112,-27 -182,-40 -126,-23 -202,-109 -361,-77l-85 22c2,60 84,141 126,159z"/>
   <path class="fil13" d="M5640 10032c-112,31 -178,72 -247,156 -23,27 -18,15 -29,56 113,-18 441,-167 495,-121 79,20 133,-13 183,34l33 9 77 10c-18,-59 -56,-96 -105,-135 -47,-38 -75,-43 -130,-90 -76,-66 -211,4 -238,26 -32,25 -20,28 -39,55z"/>
   <path class="fil13" d="M2117 10560l185 94 50 -8c116,-7 184,55 281,80l10 -22c0,-3 -4,-23 -5,-27 -153,-156 -217,-244 -444,-232 -84,4 -139,9 -149,80l72 35z"/>
   <path class="fil14" d="M6545 9346c-32,63 -54,50 -82,100 96,17 127,-9 162,28 34,8 63,25 77,57 84,9 68,28 151,5 86,-24 56,-13 141,0 -20,-51 -39,-65 -61,-97 -39,-20 -130,-56 -184,-87 -54,-32 -141,-101 -204,-6z"/>
   <path class="fil15" d="M6031 9615c-53,-40 -195,-81 -268,-41 -21,-17 -29,28 -25,-37l-19 76c69,38 129,106 223,121 158,24 139,59 252,92 -17,-72 -35,-73 -73,-123 -45,-60 -36,-47 -90,-88z"/>
   <path class="fil13" d="M3295 10160c13,7 4,0 21,15 76,66 73,106 202,105 12,-22 14,6 6,-38l-8 -21c94,-32 38,34 70,-51 -41,-11 -57,-27 -97,-35 -62,-13 -77,7 -131,-6l-70 -20 7 51z"/>
   <path class="fil14" d="M6488 9879l3 -39c-59,-6 -8,-10 -106,-39l-6 -71c-62,-16 -68,-4 -104,35l13 45c1,3 3,7 5,9 51,94 116,57 195,60z"/>
   <path class="fil16" d="M3032 10497c-18,-16 -28,-36 -44,-59l-100 -6c-56,20 -72,33 -87,89 70,14 161,9 219,23 30,-30 9,7 12,-47z"/>
   <path class="fil15" d="M7259 9585c12,3 22,5 30,7l0 -47c-23,3 -27,-6 -30,40z"/>
   <path class="fil15" d="M4657 8977c20,49 94,115 173,83 22,-65 -33,-82 -65,-128 -67,12 -67,3 -108,45z"/>
   <path class="fil13" d="M4056 10262c16,82 78,88 167,107 -7,-48 -24,-108 -40,-135 -78,-9 -74,-5 -127,28z"/>
   <path class="fil15" d="M5328 9626l-15 58 57 -4c49,-6 85,5 126,18 -17,-94 -58,-102 -154,-86l-14 14z"/>
   <path class="fil15" d="M7061 9641l-4 46c86,-9 87,44 197,11 -31,-100 -155,-63 -193,-57z"/>
   <path class="fil14" d="M4128 9834c-4,49 19,70 73,78 51,7 64,-20 74,-62 -43,-29 -90,-39 -147,-16z"/>
   <path class="fil14" d="M6872 9087l-45 -47 -95 13c12,40 20,68 64,72 37,4 53,-14 76,-38z"/>
   <path class="fil12" d="M5082 7899c-18,7 -12,1 -28,16 -28,24 -15,14 -22,28 -61,18 -73,28 -64,94 45,33 58,15 117,33 71,14 58,29 71,99 9,49 23,77 36,124 56,33 26,79 55,145l15 55c24,86 56,116 75,227 11,66 16,201 3,262 10,35 10,43 -1,88 -19,72 -16,68 3,95 65,-9 61,-1 62,-76 1,-28 -4,-95 -6,-127l15 -172c1,-5 4,-18 6,-22 17,-48 6,-16 18,-34l2 217c1,3 1,5 2,9l4 110c-5,61 -22,68 8,117l64 -6c16,-51 0,-84 -10,-133 -13,-57 -28,-93 -4,-140 10,-54 6,-108 8,-164 1,-15 4,-62 7,-73 17,-68 1,-46 59,-53l58 7c43,153 129,186 11,376 -21,51 -32,42 -49,106 77,-3 88,-13 97,-84 24,-67 48,-129 81,-193 67,-128 -16,-141 9,-199 67,16 79,199 79,264 20,26 14,-1 20,54 2,26 -2,51 -3,77 1,52 -10,59 15,106 52,-17 51,-11 36,-68 -6,-60 -19,-81 -4,-142 -26,-37 -14,-80 -14,-139 0,-50 -8,-89 15,-120l2 -108c10,-53 14,-124 38,-159l-4 -34c3,-68 -25,-82 -54,-123 -63,-8 -32,-34 -114,-45 -63,-9 -80,-2 -146,-23 -75,-23 -190,-94 -216,-106 -3,-10 -7,-20 -12,-30l0 0 0 0c-4,-7 -7,-14 -11,-21l0 0 0 -1 0 0 0 0 0 0 0 0 0 0 0 -1 0 0 0 0 0 0 0 0 0 -1 0 0 0 0 0 0 0 0 0 -1 0 0 0 0 0 0 0 0 0 -1 -7 6 5 -4c-44,-79 -110,-165 -53,-254 34,-27 113,-61 155,-90 54,-37 85,-92 131,-115 25,-28 55,-68 81,-102 19,-24 60,-91 68,-99l1 -57c-37,18 -12,20 -54,60l-48 46c-13,-71 -8,-84 -46,-132 -15,26 -20,18 -1,50 8,77 0,118 -41,167l-25 -114c-9,14 -2,-11 -12,33 -5,23 -1,-1 -4,25 -3,20 -2,45 -5,65 -11,72 -101,175 -220,205l-35 -119 -19 138c-52,-22 0,-17 -71,-49 14,54 25,55 5,90 -60,-52 -64,-110 -49,-204 79,-39 139,-37 188,-98 -17,-13 -3,-5 -31,-10l-108 -2c4,-50 16,-45 -8,-78 -18,41 -23,81 -59,105 -22,-51 2,-34 -18,-106l-10 -20c-27,77 -1,186 -25,304 -85,-45 -116,-61 -102,-197l-31 5c-3,28 11,1 -13,40l0 79c15,13 11,-3 -4,11l-34 26c91,2 195,93 239,173l-71 -29c3,64 18,54 16,80l0 0c-1,11 -5,29 -14,61z"/>
  </g>
 </g>
</svg>
